<svg id="Layer_1" data-name="Layer 1" xmlns="http://www.w3.org/2000/svg" viewBox="0 0 1920 1080">
  <defs>
    <style>
      .cls-1 {
        fill: #3c5df0;
        opacity: 0.75;
      }

      .cls-2, .cls-4, .cls-55 {
        opacity: 0.7;
      }

      .cls-3, .cls-4 {
        fill: #e6ffff;
      }

      .cls-17, .cls-5, .cls-55 {
        fill: #e6e6e6;
      }

      .cls-6 {
        fill: #603813;
      }

      .cls-7 {
        fill: #42210b;
      }

      .cls-8 {
        fill: #ccc;
      }

      .cls-9 {
        fill: #b3b3b3;
      }

      .cls-10 {
        fill: #001300;
      }

      .cls-11 {
        fill: #666;
      }

      .cls-12 {
        fill: #534741;
      }

      .cls-13 {
        fill: none;
        stroke: #001300;
      }

      .cls-13, .cls-17 {
        stroke-miterlimit: 10;
      }

      .cls-14 {
        fill: #ce8b21;
      }

      .cls-15 {
        fill: #d6b08c;
      }

      .cls-16 {
        fill: #9e3e00;
      }

      .cls-17 {
        stroke: #333;
      }

      .cls-18, .cls-29 {
        font-size: 3.16px;
      }

      .cls-18, .cls-29, .cls-33, .cls-36 {
        font-family: Chalkduster;
      }

      .cls-19 {
        letter-spacing: 0.05em;
      }

      .cls-20 {
        letter-spacing: 0em;
      }

      .cls-21 {
        letter-spacing: -0.03em;
      }

      .cls-22 {
        letter-spacing: -0.01em;
      }

      .cls-23 {
        letter-spacing: 0em;
      }

      .cls-24 {
        letter-spacing: 0.02em;
      }

      .cls-25 {
        letter-spacing: -0.04em;
      }

      .cls-26 {
        letter-spacing: 0.01em;
      }

      .cls-27 {
        letter-spacing: 0em;
      }

      .cls-28 {
        letter-spacing: 0.03em;
      }

      .cls-29 {
        letter-spacing: -0.03em;
      }

      .cls-30 {
        letter-spacing: 0.04em;
      }

      .cls-31 {
        letter-spacing: -0.04em;
      }

      .cls-32 {
        letter-spacing: -0.01em;
      }

      .cls-33 {
        font-size: 3.27px;
      }

      .cls-34 {
        letter-spacing: -0.07em;
      }

      .cls-35 {
        letter-spacing: 0em;
      }

      .cls-36 {
        font-size: 11.77px;
      }

      .cls-37 {
        letter-spacing: 0.03em;
      }

      .cls-38 {
        letter-spacing: -0.03em;
      }

      .cls-39 {
        fill: #f2f2f2;
      }

      .cls-40 {
        fill: #003632;
      }

      .cls-41 {
        fill: #006132;
      }

      .cls-42 {
        fill: #008d32;
      }

      .cls-43 {
        fill: #00c032;
      }

      .cls-44 {
        fill: #00e732;
      }

      .cls-45 {
        fill: #4e0000;
      }

      .cls-46 {
        fill: #ff1200;
      }

      .cls-47 {
        fill: #d40000;
      }

      .cls-48 {
        fill: #a42300;
      }

      .cls-49 {
        fill: #6d0000;
      }

      .cls-50 {
        fill: #000037;
      }

      .cls-51 {
        fill: #0000b7;
      }

      .cls-52 {
        fill: #00005f;
      }

      .cls-53 {
        fill: #000084;
      }

      .cls-54 {
        fill: blue;
      }

      .cls-56 {
        fill: #bdccd4;
      }

      .cls-57 {
        fill: #fff;
      }

      .cls-58 {
        fill: #f5d7b8;
      }

      .cls-59 {
        fill: #231f20;
      }

      .cls-60 {
        fill: #aee2f2;
      }

      .cls-61, .cls-62 {
        fill: #f04872;
      }

      .cls-61 {
        opacity: 0.55;
      }

      .cls-62, .cls-63, .cls-65 {
        opacity: 0.9;
      }

      .cls-63, .cls-66 {
        fill: #ffff95;
      }

      .cls-64 {
        fill: #ffffc6;
      }

      .cls-65 {
        fill: #f0eda4;
      }

      .cls-67 {
        fill: #fbc93b;
      }
    </style>
  </defs>
  <rect class="cls-1" y="0.5" width="1920" height="1080"/>
  <g class="cls-2">
    <path class="cls-3" d="M98.56,264.75c0-53.36,92.6-96.61,147.73-96.61S402,211.39,402,264.75s-100.59,96.61-155.72,96.61S98.56,318.1,98.56,264.75Z"/>
    <path class="cls-3" d="M496.06,454.83c0-73.2,117.2-132.54,187-132.54s197.08,59.34,197.08,132.54S752.8,587.37,683,587.37,496.06,528,496.06,454.83Z"/>
    <path class="cls-3" d="M378.92,559.89c0-53.36,92.6-96.61,147.73-96.61s155.72,43.25,155.72,96.61S581.78,656.5,526.65,656.5,378.92,613.25,378.92,559.89Z"/>
    <path class="cls-3" d="M186.86,533.69c0-53.36,92.6-96.61,147.73-96.61s155.73,43.25,155.73,96.61S389.72,630.3,334.59,630.3,186.86,587,186.86,533.69Z"/>
    <path class="cls-3" d="M22,418.9c0-53.36,92.61-96.61,147.74-96.61S325.5,365.54,325.5,418.9s-100.59,96.61-155.72,96.61S22,472.26,22,418.9Z"/>
    <path class="cls-3" d="M459.22,218.39c0-57.7,103.85-104.47,165.67-104.47s174.62,46.77,174.62,104.47S686.71,322.85,624.89,322.85,459.22,276.08,459.22,218.39Z"/>
    <path class="cls-3" d="M260.41,189.07C260.41,124.14,363.9,71.5,425.5,71.5s174,52.64,174,117.57-112.41,117.56-174,117.56S260.41,254,260.41,189.07Z"/>
    <path class="cls-3" d="M569.55,321.58c0-53.36,110.91-96.61,176.94-96.61S933,268.22,933,321.58s-120.48,96.61-186.51,96.61S569.55,374.93,569.55,321.58Z"/>
    <path class="cls-3" d="M271.25,380c0-63.56,115.07-115.08,183.57-115.08S648.32,316.41,648.32,380,523.33,495,454.82,495,271.25,443.52,271.25,380Z"/>
  </g>
  <circle class="cls-4" cx="817.44" cy="602.48" r="23.69"/>
  <circle class="cls-3" cx="793.44" cy="702.48" r="23.69"/>
  <circle class="cls-4" cx="885.44" cy="726.48" r="23.69"/>
  <g>
    <path class="cls-5" d="M752.93,455.81c.17-3.66,11.17-6.65,20.41-6.17,9.93.52,21,5.21,20.65,8.93s-12.24,6.43-22,5.56C763.26,463.37,752.76,459.45,752.93,455.81Z"/>
    <ellipse class="cls-5" cx="723.36" cy="444.5" rx="44.76" ry="43"/>
    <g>
      <ellipse class="cls-6" cx="723.19" cy="444.59" rx="33.76" ry="30.88"/>
      <path class="cls-7" d="M689.3,444.7s4.18-20.49,33.81-20.49S757,444.7,757,444.7c0-17.23-15.15-31.2-33.83-31.2S689.3,427.47,689.3,444.7Z"/>
    </g>
  </g>
  <g>
    <path class="cls-8" d="M599.7,557.22H352.52a5.47,5.47,0,0,1-5.24-5.64V382.78a6,6,0,0,1,1.54-4,5.06,5.06,0,0,1,3.7-1.66H599.7a5.47,5.47,0,0,1,5.25,5.65v168.8A5.47,5.47,0,0,1,599.7,557.22Z"/>
    <rect class="cls-9" x="333.23" y="364.5" width="285.77" height="11.28" rx="5.64"/>
    <path class="cls-5" d="M423.81,496.07l38.59-26.59"/>
    <polygon class="cls-9" points="347.4 377.19 604.76 377.19 347.38 516.23 347.4 377.19"/>
    <rect class="cls-10" x="432.14" y="511.79" width="87.96" height="36.27" rx="14"/>
    <rect class="cls-10" x="360.69" y="490.43" width="15.91" height="16.97" rx="7.96"/>
    <rect class="cls-10" x="385.04" y="490.47" width="15.91" height="16.97" rx="7.96"/>
    <rect class="cls-10" x="407.89" y="490.47" width="15.91" height="16.97" rx="7.96"/>
    <rect class="cls-10" x="431.12" y="490.43" width="90.1" height="17" rx="8.5"/>
    <rect class="cls-10" x="525.53" y="490.47" width="15.91" height="16.97" rx="7.96"/>
    <rect class="cls-10" x="545.76" y="490.47" width="15.91" height="16.97" rx="7.96"/>
    <rect class="cls-10" x="570.86" y="490.47" width="15.91" height="16.97" rx="7.96"/>
    <rect class="cls-10" x="488.07" y="465.88" width="15.91" height="16.97" rx="7.96"/>
    <rect class="cls-10" x="462.22" y="465.88" width="15.91" height="16.97" rx="7.96"/>
    <rect class="cls-10" x="438.99" y="465.88" width="15.91" height="16.97" rx="7.96"/>
    <rect class="cls-10" x="415.76" y="465.88" width="15.91" height="16.97" rx="7.96"/>
    <rect class="cls-10" x="392.16" y="465.88" width="15.91" height="16.97" rx="7.96"/>
    <rect class="cls-10" x="360.69" y="465.85" width="24.53" height="17" rx="8.5"/>
    <rect class="cls-10" x="513.17" y="465.88" width="15.91" height="16.97" rx="7.96"/>
    <rect class="cls-10" x="435.24" y="438.08" width="15.91" height="16.97" rx="7.96"/>
    <rect class="cls-10" x="407.89" y="438.08" width="15.91" height="16.97" rx="7.96"/>
    <rect class="cls-10" x="360.69" y="438.04" width="39.52" height="17" rx="8.5"/>
    <rect class="cls-10" x="541.45" y="465.85" width="49.45" height="17" rx="8.5"/>
    <rect class="cls-10" x="566.92" y="414.32" width="23.98" height="37.56" rx="11.99"/>
    <rect class="cls-10" x="533.4" y="438.08" width="15.91" height="16.97" rx="7.96"/>
    <rect class="cls-10" x="512.04" y="438.08" width="15.91" height="16.97" rx="7.96"/>
    <rect class="cls-10" x="488.07" y="438.08" width="15.91" height="16.97" rx="7.96"/>
    <rect class="cls-10" x="462.22" y="438.08" width="15.91" height="16.97" rx="7.96"/>
    <rect class="cls-10" x="557.93" y="410.64" width="32.96" height="27.48" rx="13.74"/>
    <rect class="cls-10" x="463.71" y="410.27" width="15.91" height="16.97" rx="7.96"/>
    <rect class="cls-10" x="438.99" y="410.27" width="15.91" height="16.97" rx="7.96"/>
    <rect class="cls-10" x="415.76" y="410.27" width="15.91" height="16.97" rx="7.96"/>
    <rect class="cls-10" x="392.16" y="410.27" width="15.91" height="16.97" rx="7.96"/>
    <rect class="cls-10" x="360.69" y="410.23" width="24.53" height="17" rx="8.5"/>
    <rect class="cls-10" x="515.42" y="410.27" width="15.91" height="16.97" rx="7.96"/>
    <rect class="cls-10" x="488.07" y="410.27" width="15.91" height="16.97" rx="7.96"/>
    <rect class="cls-10" x="537.89" y="410.27" width="15.91" height="16.97" rx="7.96"/>
  </g>
  <g>
    <rect class="cls-11" x="235.8" y="488.95" width="15.84" height="17.74"/>
    <rect class="cls-10" x="232.58" y="497.68" width="21.82" height="42.38" rx="4.51"/>
    <ellipse class="cls-10" cx="240.22" cy="492.97" rx="1.3" ry="1.45"/>
    <ellipse class="cls-10" cx="246.59" cy="493.05" rx="1.3" ry="1.45"/>
    <path class="cls-10" d="M279.74,496.58l-15.22-9.81a2.47,2.47,0,0,1-.76-3.16l5.15-9.95a2,2,0,0,1,2.83-.85l15.22,9.8a2.48,2.48,0,0,1,.76,3.17l-5.15,10A2,2,0,0,1,279.74,496.58Z"/>
  </g>
  <g>
    <g>
      <g>
        <rect class="cls-12" x="184.89" y="186.5" width="281.11" height="166.38"/>
        <rect class="cls-5" x="209.36" y="196.2" width="232.27" height="147.59"/>
        <line class="cls-13" x1="325.49" y1="343.85" x2="325.49" y2="195.76"/>
        <line class="cls-13" x1="345.67" y1="232.78" x2="431.35" y2="232.78"/>
        <line class="cls-13" x1="343.95" y1="257.84" x2="429.63" y2="257.84"/>
        <line class="cls-13" x1="343.95" y1="279.88" x2="429.63" y2="279.88"/>
        <line class="cls-13" x1="343.95" y1="307.2" x2="429.63" y2="307.2"/>
      </g>
      <g>
        <rect class="cls-14" x="216.97" y="317.64" width="8.05" height="64.91"/>
        <polygon class="cls-15" points="220.58 309.08 222.9 313.73 225.22 318.39 220.95 318.13 216.68 317.88 218.63 313.48 220.58 309.08"/>
        <polygon class="cls-10" points="223.72 313.13 221.25 313.13 218.77 313.13 220.01 310.93 221.25 308.72 222.49 310.93 223.72 313.13"/>
        <path class="cls-16" d="M225,381h-8.21a4.11,4.11,0,0,0,8.21,0Z"/>
      </g>
    </g>
    <g>
      <g>
        <rect class="cls-17" x="227.32" y="203.99" width="91.35" height="125.1"/>
        <rect class="cls-17" x="239.67" y="230.43" width="67.35" height="86.82"/>
        <rect class="cls-17" x="242.66" y="210.7" width="61.03" height="12.34"/>
        <rect class="cls-17" x="245.2" y="237.54" width="56.83" height="72.33"/>
        <text/>        <rect class="cls-17" x="239.58" y="319.16" width="67.44" height="6.03"/>
        <rect class="cls-17" x="253.52" y="251.48" width="40.18" height="6.03"/>
        <rect class="cls-17" x="253.12" y="260.16" width="40.18" height="11.32"/>
        <rect class="cls-17" x="253.12" y="275.15" width="40.18" height="6.03"/>
        <rect class="cls-17" x="253.12" y="285.14" width="40.18" height="11.32"/>
        <text class="cls-18" transform="translate(233.91 207.88) scale(1.05 1)">b<tspan class="cls-19" x="1.83" y="0">o</tspan><tspan class="cls-20" x="4.26" y="0">dy</tspan></text>
        <rect class="cls-17" x="251.67" y="214.24" width="40.18" height="6.03"/>
        <text class="cls-18" transform="translate(244.53 213.49) scale(1.05 1)">he<tspan class="cls-21" x="3.91" y="0">a</tspan><tspan x="5.98" y="0">d</tspan><tspan class="cls-22" x="8.45" y="0">e</tspan><tspan class="cls-23" x="10.37" y="0">r</tspan></text>
        <text class="cls-18" transform="translate(248.17 234.45) scale(1.05 1)">main</text>
        <text class="cls-18" transform="translate(248.62 241.46) scale(1.05 1)">s<tspan class="cls-24" x="1.59" y="0">e</tspan><tspan class="cls-25" x="3.6" y="0">c</tspan><tspan class="cls-26" x="5.48" y="0">t</tspan><tspan class="cls-27" x="6.93" y="0">i</tspan><tspan class="cls-28" x="8.18" y="0">o</tspan><tspan x="10.53" y="0">n</tspan></text>
        <text class="cls-18" transform="translate(255.57 254.86) scale(1.05 1)">h1</text>
        <text class="cls-18" transform="translate(256.85 264.39) scale(1.05 1)">p</text>
        <text class="cls-18" transform="translate(256.32 278.54) scale(1.05 1)">h2</text>
        <text class="cls-18" transform="translate(255.62 289.38) scale(1.05 1)">img</text>
        <text class="cls-29" transform="translate(245.78 323.18) scale(1.05 1)">f<tspan class="cls-30" x="1.58" y="0">o</tspan><tspan class="cls-31" x="3.97" y="0">o</tspan><tspan class="cls-32" x="6.12" y="0">te</tspan><tspan class="cls-23" x="9.46" y="0">r</tspan></text>
      </g>
      <text class="cls-33" transform="translate(265.3 217.91) scale(1.1 1)">n<tspan class="cls-34" x="2.4" y="0">a</tspan><tspan class="cls-35" x="4.42" y="0">v</tspan></text>
    </g>
  </g>
  <g>
    <text class="cls-36" transform="translate(362.87 213.59) scale(1.01 1)">S<tspan class="cls-37" x="5.85" y="0">C</tspan><tspan class="cls-38" x="15.75" y="0">R</tspan><tspan x="24.61" y="0">UM</tspan></text>
    <rect class="cls-17" x="333.63" y="222.27" width="7.4" height="6.82"/>
    <rect class="cls-17" x="333.93" y="251.58" width="7.4" height="6.82"/>
    <rect class="cls-17" x="333.93" y="277.34" width="7.4" height="6.82"/>
    <rect class="cls-17" x="332.37" y="308.26" width="7.4" height="6.82"/>
  </g>
  <g>
    <g>
      <polygon class="cls-39" points="706.47 296.5 625.97 268.87 632.23 250.24 712.73 277.87 706.47 296.5"/>
      <polygon class="cls-40" points="638.92 273.03 626.01 268.6 632.23 250.1 645.14 254.54 638.92 273.03"/>
      <polygon class="cls-41" points="655.21 278.85 642.3 274.41 648.52 255.92 661.43 260.35 655.21 278.85"/>
      <polygon class="cls-42" points="672.6 284.82 659.69 280.38 665.91 261.89 678.83 266.32 672.6 284.82"/>
      <polygon class="cls-43" points="689.61 290.65 676.7 286.22 682.92 267.73 695.83 272.16 689.61 290.65"/>
      <polygon class="cls-44" points="706.61 296.49 693.7 292.06 699.92 273.56 712.83 278 706.61 296.49"/>
    </g>
    <g>
      <polygon class="cls-39" points="714.26 279.51 630.81 263.1 634.53 243.79 717.99 260.2 714.26 279.51"/>
      <polygon class="cls-45" points="644.2 265.46 630.81 262.83 634.51 243.66 647.9 246.29 644.2 265.46"/>
      <polygon class="cls-46" points="714.3 279.25 700.92 276.62 704.61 257.45 718 260.08 714.3 279.25"/>
      <polygon class="cls-47" points="695.48 275.55 682.09 272.92 685.78 253.74 699.17 256.38 695.48 275.55"/>
      <polygon class="cls-48" points="678.25 272.16 664.86 269.53 668.55 250.35 681.94 252.99 678.25 272.16"/>
      <polygon class="cls-49" points="660.63 268.8 647.24 266.17 650.93 246.99 664.32 249.63 660.63 268.8"/>
    </g>
    <g>
      <rect class="cls-39" x="625.49" y="241.81" width="85.02" height="19.67"/>
      <rect class="cls-50" x="625.44" y="241.69" width="13.64" height="19.53"/>
      <rect class="cls-51" x="679.11" y="241.82" width="13.64" height="19.53"/>
      <rect class="cls-52" x="641.97" y="241.82" width="13.64" height="19.53"/>
      <rect class="cls-53" x="659.93" y="241.82" width="13.64" height="19.53"/>
    </g>
    <rect class="cls-54" x="697.07" y="241.82" width="13.64" height="19.47"/>
    <ellipse class="cls-9" cx="617.97" cy="254.45" rx="12.83" ry="12.95"/>
  </g>
  <ellipse class="cls-55" cx="618" cy="254.68" rx="8" ry="8.18"/>
  <g>
    <rect class="cls-8" x="629.07" y="516.65" width="50.93" height="66.85" rx="25.47"/>
    <rect class="cls-9" x="647.23" y="514.5" width="14.13" height="23.64" rx="7.06" transform="translate(1308.59 1052.64) rotate(180)"/>
  </g>
  <g>
    <g>
      <rect class="cls-10" x="493.53" y="205.03" width="46.19" height="69.28" rx="14" transform="translate(95.03 -143.21) rotate(17.36)"/>
      <rect class="cls-56" x="497.88" y="217.78" width="37.02" height="45.58" rx="14" transform="matrix(0.95, 0.3, -0.3, 0.95, 95.29, -143.1)"/>
    </g>
    <ellipse class="cls-57" cx="507.82" cy="268.21" rx="3.41" ry="3.79" transform="translate(100.32 672.88) rotate(-72.64)"/>
    <ellipse class="cls-57" cx="525.38" cy="211.78" rx="1.69" ry="1.91" transform="translate(166.5 650.05) rotate(-72.64)"/>
  </g>
  <g>
    <g>
      <path class="cls-6" d="M1122.37,1066.94S978.53,967.4,975.83,881c-2.9-92.87,13.49-198.46,146.54-198.46s140.9,109.69,136.89,201.24C1255.67,965.56,1122.37,1066.94,1122.37,1066.94Z"/>
      <path class="cls-58" d="M1117.51,707.26c72.2,0,130.73,43,130.73,96.1s-58.53,149.91-130.73,149.91S986.79,856.43,986.79,803.36,1045.32,707.26,1117.51,707.26Z"/>
      <path class="cls-59" d="M1091.65,812.74s-3,14-24.11,14-24.15-14-24.15-14c0,9.77,10.81,17.7,24.13,17.7S1091.65,822.51,1091.65,812.74Z"/>
      <path class="cls-59" d="M1188.06,812.93s-3,14-24.12,14-24.14-14-24.14-14c0,9.77,10.8,17.7,24.13,17.7S1188.06,822.7,1188.06,812.93Z"/>
      <path class="cls-6" d="M984.13,815.94c13.18,11,57.41-12.07,84.25-41,28.83-31,46.81-78.66,32.84-89.33s-60,16-87.08,47.58C989.9,761.5,971,805,984.13,815.94Z"/>
      <path class="cls-6" d="M1248.12,809c14.91-19-14.73-68.33-52.39-94.71C1155.27,686,1092.61,675,1078.19,694.9s19.82,70.54,61.1,96.63C1176.19,814.85,1233.32,827.85,1248.12,809Z"/>
    </g>
    <path class="cls-60" d="M1118.35,938.62c48.74,0,88.25,64.36,88.25,102.67s-39.51,108.21-88.25,108.21-88.24-69.9-88.24-108.21S1069.62,938.62,1118.35,938.62Z"/>
    <path class="cls-61" d="M1088.79,884.36s14.56-18,27.22-18.3c13.59-.36,29,18.3,29,18.3s-16,17.6-29.45,17.1C1103.62,901,1088.79,884.36,1088.79,884.36Z"/>
    <path class="cls-62" d="M1088.94,883.89a199.7,199.7,0,0,1,27.15-2.47,208,208,0,0,1,29,2.47,229.45,229.45,0,0,1-29.37,2.31A220.88,220.88,0,0,1,1088.94,883.89Z"/>
    <path class="cls-60" d="M1011.6,1102.31c-20,18-43.53-3.78-36.38-47.73,11.3-69.42,58.7-97,82.5-93.59,28.76,4.16,39.84,56.77-14.51,75.64C1019.18,1045,1028,1087.45,1011.6,1102.31Z"/>
    <path class="cls-60" d="M1217.15,1097.19c17.69,20.17,42.45.06,39.45-45.36-4.73-71.74-48.11-104.15-71.44-102.78-28.18,1.66-43.59,54.25,7.29,78.37C1214.94,1038.08,1202.59,1080.57,1217.15,1097.19Z"/>
    <g>
      <g>
        <ellipse cx="1115.64" cy="993.69" rx="6.29" ry="6.76"/>
        <path d="M1115.64,987.43a6.28,6.28,0,1,1-5.79,6.26,6,6,0,0,1,5.79-6.26m0-1a7.28,7.28,0,1,0,6.79,7.26,7,7,0,0,0-6.79-7.26Z"/>
      </g>
      <ellipse class="cls-57" cx="1113.98" cy="992.12" rx="0.83" ry="0.98"/>
      <ellipse class="cls-57" cx="1116.96" cy="992.12" rx="0.83" ry="0.98"/>
      <ellipse class="cls-57" cx="1116.96" cy="995.26" rx="0.83" ry="0.98"/>
      <ellipse class="cls-57" cx="1113.98" cy="995.26" rx="0.83" ry="0.98"/>
    </g>
    <g>
      <g>
        <ellipse cx="1117.99" cy="1069.53" rx="6.29" ry="6.76"/>
        <path d="M1118,1063.27a6.27,6.27,0,1,1-5.79,6.26,6,6,0,0,1,5.79-6.26m0-1a7.27,7.27,0,1,0,6.79,7.26,7,7,0,0,0-6.79-7.26Z"/>
      </g>
      <ellipse class="cls-57" cx="1116.33" cy="1067.96" rx="0.83" ry="0.98"/>
      <ellipse class="cls-57" cx="1119.31" cy="1067.96" rx="0.83" ry="0.98"/>
      <ellipse class="cls-57" cx="1119.31" cy="1071.1" rx="0.83" ry="0.98"/>
      <ellipse class="cls-57" cx="1116.33" cy="1071.1" rx="0.83" ry="0.98"/>
    </g>
    <g>
      <g>
        <ellipse cx="1117.99" cy="1037.08" rx="6.29" ry="6.76"/>
        <path d="M1118,1030.83a6.27,6.27,0,1,1-5.79,6.25,6,6,0,0,1,5.79-6.25m0-1a7.27,7.27,0,1,0,6.79,7.25,7,7,0,0,0-6.79-7.25Z"/>
      </g>
      <ellipse class="cls-57" cx="1116.33" cy="1035.52" rx="0.83" ry="0.98"/>
      <ellipse class="cls-57" cx="1119.31" cy="1035.52" rx="0.83" ry="0.98"/>
      <ellipse class="cls-57" cx="1119.31" cy="1038.65" rx="0.83" ry="0.98"/>
      <ellipse class="cls-57" cx="1116.33" cy="1038.65" rx="0.83" ry="0.98"/>
    </g>
    <path class="cls-58" d="M1115.64,924c10.24,0,42.09,21.27,42.09,30.69s-29.75,32.05-42.09,32.05c-12.07,0-42.09-22.63-42.09-32.05S1104.84,924,1115.64,924Z"/>
    <path class="cls-3" d="M1033.23,952.82c4.78-7.84,31.43-1.85,45,5.49s34.45,27.11,29.68,35-33.39.79-47-6.56S1028.46,960.66,1033.23,952.82Z"/>
    <path class="cls-3" d="M1124.93,999.15c-6.15-6.93,9-28.46,21-37.93s38.87-21.13,45-14.2-10.75,29.83-22.75,39.3S1131.08,1006.08,1124.93,999.15Z"/>
    <path class="cls-3" d="M1108.45,780.45c-28-9.14-33.52-46.72.48-66.71,53.71-31.58,110.48-.41,127.93,26,21.07,31.89-3.41,75.83-60.33,32.16C1151.36,752.58,1131.51,788,1108.45,780.45Z"/>
    <path class="cls-3" d="M985.5,777.86s28.15-20.74,55.76-31.06c29.67-11.09,67.36-14.09,67.36-14.09s-31.48,21.74-60.91,32.24C1021.42,774.33,985.5,777.86,985.5,777.86Z"/>
  </g>
  <polygon class="cls-63" points="1406.73 210.92 1414.31 226.28 1431.25 228.74 1418.99 240.69 1421.88 257.57 1406.73 249.6 1391.57 257.57 1394.47 240.69 1382.21 228.74 1399.15 226.28 1406.73 210.92"/>
  <polygon class="cls-64" points="1557.6 465.5 1564.21 478.03 1579 480.04 1568.3 489.8 1570.83 503.57 1557.6 497.07 1544.38 503.57 1546.9 489.8 1536.21 480.04 1550.99 478.03 1557.6 465.5"/>
  <polygon class="cls-65" points="1714.1 840.92 1719.02 847.52 1730 848.58 1722.05 853.72 1723.93 860.97 1714.1 857.54 1704.28 860.97 1706.15 853.72 1698.21 848.58 1709.19 847.52 1714.1 840.92"/>
  <polygon class="cls-63" points="1006.6 144.92 1012.29 154.66 1025 156.22 1015.8 163.8 1017.97 174.5 1006.6 169.45 995.23 174.5 997.4 163.8 988.21 156.22 1000.92 154.66 1006.6 144.92"/>
  <polygon class="cls-63" points="201.1 914.5 206.01 924.73 217 926.37 209.05 934.33 210.93 945.57 201.1 940.26 191.28 945.57 193.16 934.33 185.21 926.37 196.19 924.73 201.1 914.5"/>
  <polygon class="cls-65" points="109.6 62.5 120.54 80.96 145 83.92 127.3 98.28 131.48 118.57 109.6 108.99 87.73 118.57 91.91 98.28 74.21 83.92 98.67 80.96 109.6 62.5"/>
  <polygon class="cls-65" points="553.73 793.92 561.31 809.28 578.25 811.74 565.99 823.69 568.88 840.57 553.73 832.6 538.57 840.57 541.47 823.69 529.21 811.74 546.15 809.28 553.73 793.92"/>
  <polygon class="cls-65" points="1077.73 459.92 1085.31 475.28 1102.25 477.74 1089.99 489.69 1092.88 506.57 1077.73 498.6 1062.57 506.57 1065.47 489.69 1053.21 477.74 1070.15 475.28 1077.73 459.92"/>
  <path class="cls-3" d="M1648.28,358.73s-48,1.48-65.3-76.62,26.89-97.1,26.89-97.1c-58.16,12.86-96.7,62.17-86.09,110.14S1590.12,371.59,1648.28,358.73Z"/>
  <polygon class="cls-66" points="932 492.91 917.59 492.91 927.78 484.11 926.66 483.14 916.47 491.95 916.47 479.5 914.89 479.5 914.89 491.95 904.7 483.14 903.58 484.11 913.77 492.91 899.36 492.91 899.36 494.27 913.77 494.27 903.58 503.07 904.7 504.04 914.89 495.24 914.89 507.69 916.47 507.69 916.47 495.24 926.66 504.04 927.78 503.07 917.59 494.27 932 494.27 932 492.91"/>
  <polygon class="cls-64" points="1481.05 861.18 1466.64 861.18 1476.83 868.79 1475.71 869.62 1465.52 862.01 1465.52 872.77 1463.94 872.77 1463.94 862.01 1453.75 869.62 1452.63 868.79 1462.83 861.18 1448.41 861.18 1448.41 860 1462.83 860 1452.63 852.39 1453.75 851.56 1463.94 859.17 1463.94 848.41 1465.52 848.41 1465.52 859.17 1475.71 851.56 1476.83 852.39 1466.64 860 1481.05 860 1481.05 861.18"/>
  <polygon class="cls-67" points="1714.05 113.63 1699.64 113.63 1709.83 104.83 1708.71 103.87 1698.52 112.67 1698.52 100.22 1696.94 100.22 1696.94 112.67 1686.75 103.87 1685.63 104.83 1695.83 113.63 1681.41 113.63 1681.41 115 1695.83 115 1685.63 123.8 1686.75 124.76 1696.94 115.96 1696.94 128.41 1698.52 128.41 1698.52 115.96 1708.71 124.76 1709.83 123.8 1699.64 115 1714.05 115 1714.05 113.63"/>
  <polygon class="cls-66" points="313.05 688.63 298.64 688.63 308.83 679.83 307.71 678.87 297.52 687.67 297.52 675.22 295.94 675.22 295.94 687.67 285.75 678.87 284.63 679.83 294.82 688.63 280.41 688.63 280.41 690 294.82 690 284.63 698.8 285.75 699.76 295.94 690.96 295.94 703.41 297.52 703.41 297.52 690.96 307.71 699.76 308.83 698.8 298.64 690 313.05 690 313.05 688.63"/>
</svg>
