<svg id="Layer_1" data-name="Layer 1" xmlns="http://www.w3.org/2000/svg" viewBox="0 0 1920 1080">
  <defs>
    <style>
      .cls-1 {
        fill: #677f9e;
        opacity: 0.75;
      }

      .cls-2 {
        opacity: 0.7;
      }

      .cls-3, .cls-67 {
        fill: #d9e9ff;
      }

      .cls-16, .cls-4 {
        fill: #e6e6e6;
      }

      .cls-5 {
        fill: #603813;
      }

      .cls-6 {
        fill: #42210b;
      }

      .cls-7 {
        fill: #ccc;
      }

      .cls-8 {
        fill: #b3b3b3;
      }

      .cls-9 {
        fill: #001300;
      }

      .cls-10 {
        fill: #666;
      }

      .cls-11 {
        fill: #534741;
      }

      .cls-12 {
        fill: none;
        stroke: #001300;
      }

      .cls-12, .cls-16 {
        stroke-miterlimit: 10;
      }

      .cls-13 {
        fill: #ce8b21;
      }

      .cls-14 {
        fill: #d6b08c;
      }

      .cls-15 {
        fill: #9e3e00;
      }

      .cls-16 {
        stroke: #333;
      }

      .cls-17, .cls-28 {
        font-size: 3.16px;
      }

      .cls-17, .cls-28, .cls-32, .cls-35 {
        font-family: Chalkduster;
      }

      .cls-18 {
        letter-spacing: 0.05em;
      }

      .cls-19 {
        letter-spacing: 0em;
      }

      .cls-20 {
        letter-spacing: -0.03em;
      }

      .cls-21 {
        letter-spacing: -0.01em;
      }

      .cls-22 {
        letter-spacing: 0em;
      }

      .cls-23 {
        letter-spacing: 0.02em;
      }

      .cls-24 {
        letter-spacing: -0.04em;
      }

      .cls-25 {
        letter-spacing: 0.01em;
      }

      .cls-26 {
        letter-spacing: 0em;
      }

      .cls-27 {
        letter-spacing: 0.03em;
      }

      .cls-28 {
        letter-spacing: -0.03em;
      }

      .cls-29 {
        letter-spacing: 0.04em;
      }

      .cls-30 {
        letter-spacing: -0.04em;
      }

      .cls-31 {
        letter-spacing: -0.01em;
      }

      .cls-32 {
        font-size: 3.27px;
      }

      .cls-33 {
        letter-spacing: -0.07em;
      }

      .cls-34 {
        letter-spacing: 0em;
      }

      .cls-35 {
        font-size: 11.77px;
      }

      .cls-36 {
        letter-spacing: 0.03em;
      }

      .cls-37 {
        letter-spacing: -0.03em;
      }

      .cls-38 {
        fill: #f2f2f2;
      }

      .cls-39 {
        fill: #003632;
      }

      .cls-40 {
        fill: #006132;
      }

      .cls-41 {
        fill: #008d32;
      }

      .cls-42 {
        fill: #00c032;
      }

      .cls-43 {
        fill: #00e732;
      }

      .cls-44 {
        fill: #4e0000;
      }

      .cls-45 {
        fill: #ff1200;
      }

      .cls-46 {
        fill: #d40000;
      }

      .cls-47 {
        fill: #a42300;
      }

      .cls-48 {
        fill: #6d0000;
      }

      .cls-49 {
        fill: #000037;
      }

      .cls-50 {
        fill: #0000b7;
      }

      .cls-51 {
        fill: #00005f;
      }

      .cls-52 {
        fill: #000084;
      }

      .cls-53 {
        fill: blue;
      }

      .cls-54 {
        fill: #bdccd4;
      }

      .cls-55 {
        fill: #fff;
      }

      .cls-56, .cls-59 {
        fill: #ffff95;
      }

      .cls-56, .cls-58 {
        opacity: 0.9;
      }

      .cls-57 {
        fill: #ffffc6;
      }

      .cls-58 {
        fill: #f0eda4;
      }

      .cls-60 {
        fill: #fbc93b;
      }

      .cls-61 {
        fill: #9e7335;
      }

      .cls-62 {
        fill: #ebd2b0;
      }

      .cls-63 {
        fill: #231f20;
      }

      .cls-64 {
        fill: #b1caeb;
      }

      .cls-65, .cls-66 {
        fill: #c1312d;
      }

      .cls-65 {
        opacity: 0.8;
      }

      .cls-67 {
        opacity: 0.6;
      }

      .cls-68 {
        font-size: 89px;
        font-family: Merriweather-Bold, Merriweather;
        font-weight: 700;
      }

      .cls-69 {
        font-size: 25px;
        font-family: Merriweather-Light, Merriweather;
        font-weight: 300;
      }
    </style>
  </defs>
  <rect class="cls-1" y="0.5" width="1920" height="1080"/>
  <g class="cls-2">
    <path class="cls-3" d="M98.56,264.75c0-53.36,92.6-96.61,147.73-96.61S402,211.39,402,264.75s-100.59,96.61-155.72,96.61S98.56,318.1,98.56,264.75Z"/>
    <path class="cls-3" d="M496.06,454.83c0-73.2,117.2-132.54,187-132.54s197.08,59.34,197.08,132.54S752.8,587.37,683,587.37,496.06,528,496.06,454.83Z"/>
    <path class="cls-3" d="M378.92,559.89c0-53.36,92.6-96.61,147.73-96.61s155.72,43.25,155.72,96.61S581.78,656.5,526.65,656.5,378.92,613.25,378.92,559.89Z"/>
    <path class="cls-3" d="M186.86,533.69c0-53.36,92.6-96.61,147.73-96.61s155.73,43.25,155.73,96.61S389.72,630.3,334.59,630.3,186.86,587,186.86,533.69Z"/>
    <path class="cls-3" d="M22,418.9c0-53.36,92.61-96.61,147.74-96.61S325.5,365.54,325.5,418.9s-100.59,96.61-155.72,96.61S22,472.26,22,418.9Z"/>
    <path class="cls-3" d="M459.22,218.39c0-57.7,103.85-104.47,165.67-104.47s174.62,46.77,174.62,104.47S686.71,322.85,624.89,322.85,459.22,276.08,459.22,218.39Z"/>
    <path class="cls-3" d="M260.41,189.07C260.41,124.14,363.9,71.5,425.5,71.5s174,52.64,174,117.57-112.41,117.56-174,117.56S260.41,254,260.41,189.07Z"/>
    <path class="cls-3" d="M569.55,321.58c0-53.36,110.91-96.61,176.94-96.61S933,268.22,933,321.58s-120.48,96.61-186.51,96.61S569.55,374.93,569.55,321.58Z"/>
    <path class="cls-3" d="M271.25,380c0-63.56,115.07-115.08,183.57-115.08S648.32,316.41,648.32,380,523.33,495,454.82,495,271.25,443.52,271.25,380Z"/>
  </g>
  <g>
    <path class="cls-4" d="M752.93,455.81c.17-3.66,11.17-6.65,20.41-6.17,9.93.52,21,5.21,20.65,8.93s-12.24,6.43-22,5.56C763.26,463.37,752.76,459.45,752.93,455.81Z"/>
    <ellipse class="cls-4" cx="723.36" cy="444.5" rx="44.76" ry="43"/>
    <g>
      <ellipse class="cls-5" cx="723.19" cy="444.59" rx="33.76" ry="30.88"/>
      <path class="cls-6" d="M689.3,444.7s4.18-20.49,33.81-20.49S757,444.7,757,444.7c0-17.23-15.15-31.2-33.83-31.2S689.3,427.47,689.3,444.7Z"/>
    </g>
  </g>
  <g>
    <path class="cls-7" d="M599.7,557.22H352.52a5.47,5.47,0,0,1-5.24-5.64V382.78a6,6,0,0,1,1.54-4,5.06,5.06,0,0,1,3.7-1.66H599.7a5.47,5.47,0,0,1,5.25,5.65v168.8A5.47,5.47,0,0,1,599.7,557.22Z"/>
    <rect class="cls-8" x="333.23" y="364.5" width="285.77" height="11.28" rx="5.64"/>
    <path class="cls-4" d="M423.81,496.07l38.59-26.59"/>
    <polygon class="cls-8" points="347.4 377.19 604.76 377.19 347.38 516.23 347.4 377.19"/>
    <rect class="cls-9" x="432.14" y="511.79" width="87.96" height="36.27" rx="14"/>
    <rect class="cls-9" x="360.69" y="490.43" width="15.91" height="16.97" rx="7.96"/>
    <rect class="cls-9" x="385.04" y="490.47" width="15.91" height="16.97" rx="7.96"/>
    <rect class="cls-9" x="407.89" y="490.47" width="15.91" height="16.97" rx="7.96"/>
    <rect class="cls-9" x="431.12" y="490.43" width="90.1" height="17" rx="8.5"/>
    <rect class="cls-9" x="525.53" y="490.47" width="15.91" height="16.97" rx="7.96"/>
    <rect class="cls-9" x="545.76" y="490.47" width="15.91" height="16.97" rx="7.96"/>
    <rect class="cls-9" x="570.86" y="490.47" width="15.91" height="16.97" rx="7.96"/>
    <rect class="cls-9" x="488.07" y="465.88" width="15.91" height="16.97" rx="7.96"/>
    <rect class="cls-9" x="462.22" y="465.88" width="15.91" height="16.97" rx="7.96"/>
    <rect class="cls-9" x="438.99" y="465.88" width="15.91" height="16.97" rx="7.96"/>
    <rect class="cls-9" x="415.76" y="465.88" width="15.91" height="16.97" rx="7.96"/>
    <rect class="cls-9" x="392.16" y="465.88" width="15.91" height="16.97" rx="7.96"/>
    <rect class="cls-9" x="360.69" y="465.85" width="24.53" height="17" rx="8.5"/>
    <rect class="cls-9" x="513.17" y="465.88" width="15.91" height="16.97" rx="7.96"/>
    <rect class="cls-9" x="435.24" y="438.08" width="15.91" height="16.97" rx="7.96"/>
    <rect class="cls-9" x="407.89" y="438.08" width="15.91" height="16.97" rx="7.96"/>
    <rect class="cls-9" x="360.69" y="438.04" width="39.52" height="17" rx="8.5"/>
    <rect class="cls-9" x="541.45" y="465.85" width="49.45" height="17" rx="8.5"/>
    <rect class="cls-9" x="566.92" y="414.32" width="23.98" height="37.56" rx="11.99"/>
    <rect class="cls-9" x="533.4" y="438.08" width="15.91" height="16.97" rx="7.96"/>
    <rect class="cls-9" x="512.04" y="438.08" width="15.91" height="16.97" rx="7.96"/>
    <rect class="cls-9" x="488.07" y="438.08" width="15.91" height="16.97" rx="7.96"/>
    <rect class="cls-9" x="462.22" y="438.08" width="15.91" height="16.97" rx="7.96"/>
    <rect class="cls-9" x="557.93" y="410.64" width="32.96" height="27.48" rx="13.74"/>
    <rect class="cls-9" x="463.71" y="410.27" width="15.91" height="16.97" rx="7.96"/>
    <rect class="cls-9" x="438.99" y="410.27" width="15.91" height="16.97" rx="7.96"/>
    <rect class="cls-9" x="415.76" y="410.27" width="15.91" height="16.97" rx="7.96"/>
    <rect class="cls-9" x="392.16" y="410.27" width="15.91" height="16.97" rx="7.96"/>
    <rect class="cls-9" x="360.69" y="410.23" width="24.53" height="17" rx="8.5"/>
    <rect class="cls-9" x="515.42" y="410.27" width="15.91" height="16.97" rx="7.96"/>
    <rect class="cls-9" x="488.07" y="410.27" width="15.91" height="16.97" rx="7.96"/>
    <rect class="cls-9" x="537.89" y="410.27" width="15.91" height="16.97" rx="7.96"/>
  </g>
  <g>
    <rect class="cls-10" x="235.8" y="488.95" width="15.84" height="17.74"/>
    <rect class="cls-9" x="232.58" y="497.68" width="21.82" height="42.38" rx="4.51"/>
    <ellipse class="cls-9" cx="240.22" cy="492.97" rx="1.3" ry="1.45"/>
    <ellipse class="cls-9" cx="246.59" cy="493.05" rx="1.3" ry="1.45"/>
    <path class="cls-9" d="M279.74,496.58l-15.22-9.81a2.47,2.47,0,0,1-.76-3.16l5.15-9.95a2,2,0,0,1,2.83-.85l15.22,9.8a2.48,2.48,0,0,1,.76,3.17l-5.15,10A2,2,0,0,1,279.74,496.58Z"/>
  </g>
  <g>
    <g>
      <g>
        <rect class="cls-11" x="184.89" y="186.5" width="281.11" height="166.38"/>
        <rect class="cls-4" x="209.36" y="196.2" width="232.27" height="147.59"/>
        <line class="cls-12" x1="325.49" y1="343.85" x2="325.49" y2="195.76"/>
        <line class="cls-12" x1="345.67" y1="232.78" x2="431.35" y2="232.78"/>
        <line class="cls-12" x1="343.95" y1="257.84" x2="429.63" y2="257.84"/>
        <line class="cls-12" x1="343.95" y1="279.88" x2="429.63" y2="279.88"/>
        <line class="cls-12" x1="343.95" y1="307.2" x2="429.63" y2="307.2"/>
      </g>
      <g>
        <rect class="cls-13" x="216.97" y="317.64" width="8.05" height="64.91"/>
        <polygon class="cls-14" points="220.58 309.08 222.9 313.73 225.22 318.39 220.95 318.13 216.68 317.88 218.63 313.48 220.58 309.08"/>
        <polygon class="cls-9" points="223.72 313.13 221.25 313.13 218.77 313.13 220.01 310.93 221.25 308.72 222.49 310.93 223.72 313.13"/>
        <path class="cls-15" d="M225,381h-8.21a4.11,4.11,0,0,0,8.21,0Z"/>
      </g>
    </g>
    <g>
      <g>
        <rect class="cls-16" x="227.32" y="203.99" width="91.35" height="125.1"/>
        <rect class="cls-16" x="239.67" y="230.43" width="67.35" height="86.82"/>
        <rect class="cls-16" x="242.66" y="210.7" width="61.03" height="12.34"/>
        <rect class="cls-16" x="245.2" y="237.54" width="56.83" height="72.33"/>
        <text/>        <rect class="cls-16" x="239.58" y="319.16" width="67.44" height="6.03"/>
        <rect class="cls-16" x="253.52" y="251.48" width="40.18" height="6.03"/>
        <rect class="cls-16" x="253.12" y="260.16" width="40.18" height="11.32"/>
        <rect class="cls-16" x="253.12" y="275.15" width="40.18" height="6.03"/>
        <rect class="cls-16" x="253.12" y="285.14" width="40.18" height="11.32"/>
        <text class="cls-17" transform="translate(233.91 207.88) scale(1.05 1)">b<tspan class="cls-18" x="1.83" y="0">o</tspan><tspan class="cls-19" x="4.26" y="0">dy</tspan></text>
        <rect class="cls-16" x="251.67" y="214.24" width="40.18" height="6.03"/>
        <text class="cls-17" transform="translate(244.53 213.49) scale(1.05 1)">he<tspan class="cls-20" x="3.91" y="0">a</tspan><tspan x="5.98" y="0">d</tspan><tspan class="cls-21" x="8.45" y="0">e</tspan><tspan class="cls-22" x="10.37" y="0">r</tspan></text>
        <text class="cls-17" transform="translate(248.17 234.45) scale(1.05 1)">main</text>
        <text class="cls-17" transform="translate(248.62 241.46) scale(1.05 1)">s<tspan class="cls-23" x="1.59" y="0">e</tspan><tspan class="cls-24" x="3.6" y="0">c</tspan><tspan class="cls-25" x="5.48" y="0">t</tspan><tspan class="cls-26" x="6.93" y="0">i</tspan><tspan class="cls-27" x="8.18" y="0">o</tspan><tspan x="10.53" y="0">n</tspan></text>
        <text class="cls-17" transform="translate(255.57 254.86) scale(1.05 1)">h1</text>
        <text class="cls-17" transform="translate(256.85 264.39) scale(1.05 1)">p</text>
        <text class="cls-17" transform="translate(256.32 278.54) scale(1.05 1)">h2</text>
        <text class="cls-17" transform="translate(255.62 289.38) scale(1.05 1)">img</text>
        <text class="cls-28" transform="translate(245.78 323.18) scale(1.05 1)">f<tspan class="cls-29" x="1.58" y="0">o</tspan><tspan class="cls-30" x="3.97" y="0">o</tspan><tspan class="cls-31" x="6.12" y="0">te</tspan><tspan class="cls-22" x="9.46" y="0">r</tspan></text>
      </g>
      <text class="cls-32" transform="translate(265.3 217.91) scale(1.1 1)">n<tspan class="cls-33" x="2.4" y="0">a</tspan><tspan class="cls-34" x="4.42" y="0">v</tspan></text>
    </g>
  </g>
  <g>
    <text class="cls-35" transform="translate(362.87 213.59) scale(1.01 1)">S<tspan class="cls-36" x="5.85" y="0">C</tspan><tspan class="cls-37" x="15.75" y="0">R</tspan><tspan x="24.61" y="0">UM</tspan></text>
    <rect class="cls-16" x="333.63" y="222.27" width="7.4" height="6.82"/>
    <rect class="cls-16" x="333.93" y="251.58" width="7.4" height="6.82"/>
    <rect class="cls-16" x="333.93" y="277.34" width="7.4" height="6.82"/>
    <rect class="cls-16" x="332.37" y="308.26" width="7.4" height="6.82"/>
  </g>
  <g>
    <g>
      <polygon class="cls-38" points="706.47 296.5 625.97 268.87 632.23 250.24 712.73 277.87 706.47 296.5"/>
      <polygon class="cls-39" points="638.92 273.03 626.01 268.6 632.23 250.1 645.14 254.54 638.92 273.03"/>
      <polygon class="cls-40" points="655.21 278.85 642.3 274.41 648.52 255.92 661.43 260.35 655.21 278.85"/>
      <polygon class="cls-41" points="672.6 284.82 659.69 280.38 665.91 261.89 678.83 266.32 672.6 284.82"/>
      <polygon class="cls-42" points="689.61 290.65 676.7 286.22 682.92 267.73 695.83 272.16 689.61 290.65"/>
      <polygon class="cls-43" points="706.61 296.49 693.7 292.06 699.92 273.56 712.83 278 706.61 296.49"/>
    </g>
    <g>
      <polygon class="cls-38" points="714.26 279.51 630.81 263.1 634.53 243.79 717.99 260.2 714.26 279.51"/>
      <polygon class="cls-44" points="644.2 265.46 630.81 262.83 634.51 243.66 647.9 246.29 644.2 265.46"/>
      <polygon class="cls-45" points="714.3 279.25 700.92 276.62 704.61 257.45 718 260.08 714.3 279.25"/>
      <polygon class="cls-46" points="695.48 275.55 682.09 272.92 685.78 253.74 699.17 256.38 695.48 275.55"/>
      <polygon class="cls-47" points="678.25 272.16 664.86 269.53 668.55 250.35 681.94 252.99 678.25 272.16"/>
      <polygon class="cls-48" points="660.63 268.8 647.24 266.17 650.93 246.99 664.32 249.63 660.63 268.8"/>
    </g>
    <g>
      <rect class="cls-38" x="625.49" y="241.81" width="85.02" height="19.67"/>
      <rect class="cls-49" x="625.44" y="241.69" width="13.64" height="19.53"/>
      <rect class="cls-50" x="679.11" y="241.82" width="13.64" height="19.53"/>
      <rect class="cls-51" x="641.97" y="241.82" width="13.64" height="19.53"/>
      <rect class="cls-52" x="659.93" y="241.82" width="13.64" height="19.53"/>
    </g>
    <rect class="cls-53" x="697.07" y="241.82" width="13.64" height="19.47"/>
    <ellipse class="cls-8" cx="617.97" cy="254.45" rx="12.83" ry="12.95"/>
  </g>
  <ellipse class="cls-3" cx="618" cy="254.68" rx="8" ry="8.18"/>
  <g>
    <rect class="cls-7" x="629.07" y="516.65" width="50.93" height="66.85" rx="25.47"/>
    <rect class="cls-8" x="647.23" y="514.5" width="14.13" height="23.64" rx="7.06" transform="translate(1308.59 1052.64) rotate(180)"/>
  </g>
  <g>
    <g>
      <rect class="cls-9" x="493.53" y="205.03" width="46.19" height="69.28" rx="14" transform="translate(95.03 -143.21) rotate(17.36)"/>
      <rect class="cls-54" x="497.88" y="217.78" width="37.02" height="45.58" rx="14" transform="matrix(0.95, 0.3, -0.3, 0.95, 95.29, -143.1)"/>
    </g>
    <ellipse class="cls-55" cx="507.82" cy="268.21" rx="3.41" ry="3.79" transform="translate(100.32 672.88) rotate(-72.64)"/>
    <ellipse class="cls-55" cx="525.38" cy="211.78" rx="1.69" ry="1.91" transform="translate(166.5 650.05) rotate(-72.64)"/>
  </g>
  <polygon class="cls-56" points="1406.73 210.92 1414.31 226.28 1431.25 228.74 1418.99 240.69 1421.88 257.57 1406.73 249.6 1391.57 257.57 1394.47 240.69 1382.21 228.74 1399.15 226.28 1406.73 210.92"/>
  <polygon class="cls-57" points="1569.6 521.5 1576.21 534.03 1591 536.04 1580.3 545.8 1582.83 559.57 1569.6 553.07 1556.38 559.57 1558.9 545.8 1548.21 536.04 1562.99 534.03 1569.6 521.5"/>
  <polygon class="cls-58" points="1714.1 840.92 1719.02 847.52 1730 848.58 1722.05 853.72 1723.93 860.97 1714.1 857.54 1704.28 860.97 1706.15 853.72 1698.21 848.58 1709.19 847.52 1714.1 840.92"/>
  <polygon class="cls-56" points="1006.6 144.92 1012.29 154.66 1025 156.22 1015.8 163.8 1017.97 174.5 1006.6 169.45 995.23 174.5 997.4 163.8 988.21 156.22 1000.92 154.66 1006.6 144.92"/>
  <polygon class="cls-56" points="201.1 914.5 206.01 924.73 217 926.37 209.05 934.33 210.93 945.57 201.1 940.26 191.28 945.57 193.16 934.33 185.21 926.37 196.19 924.73 201.1 914.5"/>
  <polygon class="cls-58" points="109.6 62.5 120.54 80.96 145 83.92 127.3 98.28 131.48 118.57 109.6 108.99 87.73 118.57 91.91 98.28 74.21 83.92 98.67 80.96 109.6 62.5"/>
  <polygon class="cls-58" points="553.73 793.92 561.31 809.28 578.25 811.74 565.99 823.69 568.88 840.57 553.73 832.6 538.57 840.57 541.47 823.69 529.21 811.74 546.15 809.28 553.73 793.92"/>
  <polygon class="cls-58" points="1077.73 459.92 1085.31 475.28 1102.25 477.74 1089.99 489.69 1092.88 506.57 1077.73 498.6 1062.57 506.57 1065.47 489.69 1053.21 477.74 1070.15 475.28 1077.73 459.92"/>
  <path class="cls-3" d="M1655.38,351.25s-47.65,6.22-72.57-69.79,17.13-99.28,17.13-99.28c-56.59,18.56-90.06,71.44-74.75,118.13S1598.78,369.8,1655.38,351.25Z"/>
  <polygon class="cls-59" points="932 492.91 917.59 492.91 927.78 484.11 926.66 483.14 916.47 491.95 916.47 479.5 914.89 479.5 914.89 491.95 904.7 483.14 903.58 484.11 913.77 492.91 899.36 492.91 899.36 494.27 913.77 494.27 903.58 503.07 904.7 504.04 914.89 495.24 914.89 507.69 916.47 507.69 916.47 495.24 926.66 504.04 927.78 503.07 917.59 494.27 932 494.27 932 492.91"/>
  <polygon class="cls-57" points="1481.05 861.18 1466.64 861.18 1476.83 868.79 1475.71 869.62 1465.52 862.01 1465.52 872.77 1463.94 872.77 1463.94 862.01 1453.75 869.62 1452.63 868.79 1462.83 861.18 1448.41 861.18 1448.41 860 1462.83 860 1452.63 852.39 1453.75 851.56 1463.94 859.17 1463.94 848.41 1465.52 848.41 1465.52 859.17 1475.71 851.56 1476.83 852.39 1466.64 860 1481.05 860 1481.05 861.18"/>
  <polygon class="cls-60" points="1714.05 113.63 1699.64 113.63 1709.83 104.83 1708.71 103.87 1698.52 112.67 1698.52 100.22 1696.94 100.22 1696.94 112.67 1686.75 103.87 1685.63 104.83 1695.83 113.63 1681.41 113.63 1681.41 115 1695.83 115 1685.63 123.8 1686.75 124.76 1696.94 115.96 1696.94 128.41 1698.52 128.41 1698.52 115.96 1708.71 124.76 1709.83 123.8 1699.64 115 1714.05 115 1714.05 113.63"/>
  <polygon class="cls-59" points="313.05 688.63 298.64 688.63 308.83 679.83 307.71 678.87 297.52 687.67 297.52 675.22 295.94 675.22 295.94 687.67 285.75 678.87 284.63 679.83 294.82 688.63 280.41 688.63 280.41 690 294.82 690 284.63 698.8 285.75 699.76 295.94 690.96 295.94 703.41 297.52 703.41 297.52 690.96 307.71 699.76 308.83 698.8 298.64 690 313.05 690 313.05 688.63"/>
  <g>
    <g>
      <g>
        <path class="cls-61" d="M1082.42,1081.79s-105.13-81.63-107.11-152.53c-2.11-76.16,9.86-162.76,107.11-162.76s103,90,100,165C1179.84,998.65,1082.42,1081.79,1082.42,1081.79Z"/>
        <path class="cls-62" d="M1078.86,786.81c52.77,0,95.54,35.28,95.54,78.81s-42.77,123-95.54,123-95.54-79.42-95.54-123S1026.1,786.81,1078.86,786.81Z"/>
        <path class="cls-63" d="M1060,873.31s-2.17,11.52-17.62,11.52-17.65-11.52-17.65-11.52c0,8,7.9,14.52,17.64,14.52S1060,881.33,1060,873.31Z"/>
        <path class="cls-63" d="M1130.42,873.47S1128.24,885,1112.79,885s-17.64-11.52-17.64-11.52c0,8,7.9,14.51,17.64,14.51S1130.42,881.48,1130.42,873.47Z"/>
        <path class="cls-61" d="M981.38,875.94c9.64,9.06,42-9.9,61.57-33.59,21.08-25.46,34.22-64.52,24-73.27s-43.82,13.09-63.64,39C985.6,831.29,971.82,866.94,981.38,875.94Z"/>
        <path class="cls-61" d="M1174.32,870.25c10.89-15.57-10.77-56-38.29-77.67-29.58-23.25-75.36-32.21-85.91-15.91s14.49,57.85,44.66,79.25C1121.74,875.05,1163.5,885.71,1174.32,870.25Z"/>
      </g>
      <path class="cls-64" d="M1079.48,976.55c35.62,0,64.49,52.78,64.49,84.2s-28.87,88.75-64.49,88.75-64.5-57.33-64.5-88.75S1043.86,976.55,1079.48,976.55Z"/>
      <path class="cls-65" d="M1057.87,932.05s10.65-14.73,19.89-15c9.94-.29,21.23,15,21.23,15s-11.73,14.44-21.53,14C1068.71,945.71,1057.87,932.05,1057.87,932.05Z"/>
      <path class="cls-66" d="M1058,931.67a130.18,130.18,0,0,1,19.84-2,134.68,134.68,0,0,1,21.17,2,149.81,149.81,0,0,1-21.47,1.89A144.72,144.72,0,0,1,1058,931.67Z"/>
      <path class="cls-64" d="M1001.46,1110.8c-14.58,14.79-31.82-3.1-26.59-39.15,8.25-56.93,42.9-79.58,60.3-76.75,21,3.41,29.11,46.55-10.61,62C1007,1063.77,1013.47,1098.61,1001.46,1110.8Z"/>
      <path class="cls-64" d="M1151.69,1106.6c12.92,16.54,31,.05,28.83-37.2-3.46-58.84-35.16-85.41-52.21-84.29-20.6,1.35-31.86,44.49,5.32,64.27C1150.07,1058.12,1141,1093,1151.69,1106.6Z"/>
      <g>
        <g>
          <ellipse cx="1077.49" cy="1021.72" rx="4.46" ry="5.45"/>
          <path d="M1077.49,1016.77c2.19,0,4,2.22,4,5s-1.77,5-4,5-4-2.22-4-5,1.78-5,4-5m0-1c-2.74,0-5,2.66-5,6s2.22,6,5,6,5-2.67,5-6-2.22-6-5-6Z"/>
        </g>
        <ellipse class="cls-55" cx="1076.28" cy="1020.43" rx="0.61" ry="0.8"/>
        <ellipse class="cls-55" cx="1078.46" cy="1020.43" rx="0.61" ry="0.8"/>
        <ellipse class="cls-55" cx="1078.46" cy="1023" rx="0.61" ry="0.8"/>
        <ellipse class="cls-55" cx="1076.28" cy="1023" rx="0.61" ry="0.8"/>
      </g>
      <g>
        <path d="M1079.21,1089.36c-2.46,0-4.46-2.44-4.46-5.45s2-5.45,4.46-5.45,4.46,2.45,4.46,5.45S1081.67,1089.36,1079.21,1089.36Z"/>
        <path d="M1079.21,1079c2.19,0,4,2.22,4,5s-1.77,4.95-4,4.95-4-2.22-4-4.95,1.78-5,4-5m0-1c-2.74,0-5,2.66-5,6s2.22,5.95,5,5.95,5-2.66,5-5.95-2.22-6-5-6Z"/>
      </g>
      <g>
        <g>
          <path d="M1079.21,1062.76c-2.46,0-4.46-2.45-4.46-5.46s2-5.45,4.46-5.45,4.46,2.45,4.46,5.45S1081.67,1062.76,1079.21,1062.76Z"/>
          <path d="M1079.21,1052.35c2.19,0,4,2.22,4,5s-1.77,5-4,5-4-2.22-4-5,1.78-5,4-5m0-1c-2.74,0-5,2.67-5,6s2.22,6,5,6,5-2.67,5-6-2.22-6-5-6Z"/>
        </g>
        <ellipse class="cls-55" cx="1078" cy="1056.02" rx="0.61" ry="0.8"/>
        <ellipse class="cls-55" cx="1080.18" cy="1056.02" rx="0.61" ry="0.8"/>
        <ellipse class="cls-55" cx="1080.18" cy="1058.59" rx="0.61" ry="0.8"/>
        <ellipse class="cls-55" cx="1078" cy="1058.59" rx="0.61" ry="0.8"/>
      </g>
      <path class="cls-62" d="M1077.49,964.56c7.49,0,30.76,17.44,30.76,25.16s-21.73,26.29-30.76,26.29c-8.81,0-30.76-18.57-30.76-26.29S1069.6,964.56,1077.49,964.56Z"/>
      <path class="cls-3" d="M1017.27,988.19c3.48-6.42,23-1.51,32.88,4.51s25.18,22.23,21.69,28.66-24.41.65-34.32-5.38S1013.78,994.62,1017.27,988.19Z"/>
      <path class="cls-3" d="M1084.29,1026.19c-4.5-5.68,6.58-23.34,15.35-31.1s28.4-17.33,32.9-11.65-7.86,24.47-16.62,32.23S1088.78,1031.88,1084.29,1026.19Z"/>
      <path class="cls-3" d="M1072.24,846.83c-20.47-7.49-24.5-38.31.35-54.71,39.25-25.9,80.75-.33,93.5,21.32,15.4,26.15-2.49,62.19-44.1,26.37C1103.6,824,1089.09,853,1072.24,846.83Z"/>
      <path class="cls-3" d="M982.38,844.7s20.57-17,40.75-25.47c21.69-9.09,49.23-11.55,49.23-11.55s-23,17.83-44.51,26.44C1008.63,841.81,982.38,844.7,982.38,844.7Z"/>
    </g>
    <path class="cls-63" d="M1028.64,881.55s-1.94.91-4-1.73-.75-4.3-.75-4.3c-1.15.9-1,3,.31,4.64S1027.49,882.44,1028.64,881.55Z"/>
    <path class="cls-63" d="M1026.91,878.25s-2.35,1.22-4.45-1.42-.34-4.61-.34-4.61a3.56,3.56,0,0,0-.2,5A3.66,3.66,0,0,0,1026.91,878.25Z"/>
    <path class="cls-63" d="M1133.23,877.68s.59,2.56-2.54,3.88-4.59-.87-4.59-.87c.71,1.65,2.89,2.32,4.86,1.49S1134,879.33,1133.23,877.68Z"/>
    <path class="cls-63" d="M1134.85,875.68s.63,2.55-2.48,3.92-4.6-.8-4.6-.8c.74,1.64,2.92,2.28,4.88,1.41S1135.59,877.32,1134.85,875.68Z"/>
  </g>
  <path class="cls-64" d="M1077.83,838.1c-16.23-5.82-16.85-29.74,5.1-42.46,34.66-20.11,66.67-.27,75.29,16.53,10.42,20.3-7.51,48.27-38.7,20.47C1105.73,820.35,1091.2,842.88,1077.83,838.1Z"/>
  <ellipse class="cls-67" cx="1102.47" cy="808.1" rx="7.53" ry="7.6"/>
  <ellipse class="cls-67" cx="1129.63" cy="800.02" rx="7.53" ry="7.6"/>
  <ellipse class="cls-67" cx="1144.63" cy="823.02" rx="7.53" ry="7.6"/>
  <ellipse class="cls-67" cx="1078.63" cy="826.02" rx="7.53" ry="7.6"/>
  <text class="cls-68" transform="translate(997.86 402.86) scale(0.86 1)">PORTFOLIO SITE</text>
  <text class="cls-69" transform="translate(1367.61 463.83) scale(0.93 1)">LAURA KRONE ELSTRUP</text>
  <g class="cls-2">
    <path class="cls-3" d="M770.18,662.28c0-4.64,9.52-8.39,15.19-8.39s16,3.75,16,8.39-10.35,8.38-16,8.38S770.18,666.91,770.18,662.28Z"/>
    <path class="cls-3" d="M811.06,678.78c0-6.36,12.06-11.51,19.23-11.51s20.27,5.15,20.27,11.51-13.09,11.51-20.27,11.51S811.06,685.13,811.06,678.78Z"/>
    <path class="cls-3" d="M799,687.9c0-4.63,9.53-8.39,15.2-8.39s16,3.76,16,8.39-10.34,8.39-16,8.39S799,692.53,799,687.9Z"/>
    <path class="cls-3" d="M779.26,685.63c0-4.64,9.53-8.39,15.2-8.39s16,3.75,16,8.39-10.34,8.38-16,8.38S779.26,690.26,779.26,685.63Z"/>
    <path class="cls-3" d="M762.31,675.66c0-4.63,9.52-8.39,15.19-8.39s16,3.76,16,8.39-10.35,8.39-16,8.39S762.31,680.29,762.31,675.66Z"/>
    <path class="cls-3" d="M807.27,658.25c0-5,10.68-9.07,17-9.07s18,4.06,18,9.07-11.6,9.07-18,9.07S807.27,663.26,807.27,658.25Z"/>
    <path class="cls-3" d="M786.83,655.71c0-5.64,10.64-10.21,17-10.21s17.9,4.57,17.9,10.21-11.56,10.2-17.9,10.2S786.83,661.34,786.83,655.71Z"/>
    <path class="cls-3" d="M818.62,667.21c0-4.63,11.41-8.39,18.2-8.39S856,662.58,856,667.21s-12.39,8.39-19.18,8.39S818.62,671.84,818.62,667.21Z"/>
    <path class="cls-3" d="M787.94,672.28c0-5.52,11.83-10,18.88-10s19.9,4.47,19.9,10-12.85,10-19.9,10S787.94,677.8,787.94,672.28Z"/>
  </g>
  <g class="cls-2">
    <path class="cls-3" d="M775.86,787.3c0-3.8,6.57-6.88,10.47-6.88s11,3.08,11,6.88-7.13,6.87-11,6.87S775.86,791.1,775.86,787.3Z"/>
    <path class="cls-3" d="M804,800.83c0-5.21,8.31-9.44,13.26-9.44s14,4.23,14,9.44-9,9.43-14,9.43S804,806,804,800.83Z"/>
    <path class="cls-3" d="M795.73,808.3c0-3.79,6.57-6.87,10.47-6.87s11,3.08,11,6.87-7.13,6.88-11,6.88S795.73,812.1,795.73,808.3Z"/>
    <path class="cls-3" d="M782.12,806.44c0-3.8,6.57-6.88,10.47-6.88s11,3.08,11,6.88-7.13,6.88-11,6.88S782.12,810.24,782.12,806.44Z"/>
    <path class="cls-3" d="M770.44,798.27c0-3.8,6.57-6.88,10.47-6.88s11,3.08,11,6.88-7.13,6.88-11,6.88S770.44,802.07,770.44,798.27Z"/>
    <path class="cls-3" d="M801.42,784c0-4.11,7.36-7.44,11.74-7.44s12.38,3.33,12.38,7.44-8,7.43-12.38,7.43S801.42,788.1,801.42,784Z"/>
    <path class="cls-3" d="M787.34,781.91c0-4.62,7.33-8.37,11.69-8.37s12.34,3.75,12.34,8.37-8,8.37-12.34,8.37S787.34,786.53,787.34,781.91Z"/>
    <path class="cls-3" d="M809.24,791.34c0-3.79,7.86-6.87,12.54-6.87S835,787.55,835,791.34s-8.54,6.88-13.22,6.88S809.24,795.14,809.24,791.34Z"/>
    <path class="cls-3" d="M788.1,795.5c0-4.52,8.16-8.19,13-8.19s13.72,3.67,13.72,8.19-8.86,8.19-13.72,8.19S788.1,800,788.1,795.5Z"/>
  </g>
  <g class="cls-2">
    <path class="cls-3" d="M916.71,829.43c0-2.15,4-3.88,6.31-3.88s6.65,1.73,6.65,3.88-4.29,3.88-6.65,3.88S916.71,831.57,916.71,829.43Z"/>
    <path class="cls-3" d="M933.69,837.07c0-2.94,5-5.33,8-5.33s8.42,2.39,8.42,5.33-5.44,5.33-8.42,5.33S933.69,840,933.69,837.07Z"/>
    <path class="cls-3" d="M928.69,841.3c0-2.15,3.95-3.89,6.31-3.89s6.65,1.74,6.65,3.89-4.3,3.88-6.65,3.88S928.69,843.44,928.69,841.3Z"/>
    <path class="cls-3" d="M920.48,840.24c0-2.14,4-3.88,6.31-3.88s6.66,1.74,6.66,3.88-4.3,3.89-6.66,3.89S920.48,842.39,920.48,840.24Z"/>
    <path class="cls-3" d="M913.44,835.63c0-2.15,4-3.89,6.31-3.89s6.66,1.74,6.66,3.89-4.3,3.88-6.66,3.88S913.44,837.77,913.44,835.63Z"/>
    <path class="cls-3" d="M932.12,827.57c0-2.32,4.43-4.2,7.08-4.2s7.45,1.88,7.45,4.2-4.81,4.2-7.45,4.2S932.12,829.89,932.12,827.57Z"/>
    <path class="cls-3" d="M923.63,826.39c0-2.61,4.42-4.73,7-4.73s7.43,2.12,7.43,4.73-4.8,4.72-7.43,4.72S923.63,829,923.63,826.39Z"/>
    <path class="cls-3" d="M936.83,831.71c0-2.14,4.74-3.88,7.56-3.88s8,1.74,8,3.88-5.15,3.89-8,3.89S936.83,833.86,936.83,831.71Z"/>
    <path class="cls-3" d="M924.09,834.06c0-2.55,4.91-4.62,7.84-4.62s8.27,2.07,8.27,4.62-5.34,4.63-8.27,4.63S924.09,836.62,924.09,834.06Z"/>
  </g>
</svg>
